<svg width="28" height="26" viewBox="0 0 28 26" fill="none" xmlns="http://www.w3.org/2000/svg">
<path d="M13.8529 14.3804C17.9549 14.3804 21.283 11.1598 21.283 7.19022C21.283 3.22062 17.9549 0 13.8529 0C9.75092 0 6.42288 3.22062 6.42288 7.19022C6.42288 11.1598 9.75092 14.3804 13.8529 14.3804ZM20.4574 15.9783H17.6144C16.4689 16.4876 15.1945 16.7772 13.8529 16.7772C12.5114 16.7772 11.2421 16.4876 10.0915 15.9783H7.24844C3.60049 15.9783 0.643951 18.8394 0.643951 22.3696V23.1685C0.643951 24.4917 1.7533 25.5652 3.12063 25.5652H24.5852C25.9526 25.5652 27.0619 24.4917 27.0619 23.1685V22.3696C27.0619 18.8394 24.1054 15.9783 20.4574 15.9783Z" fill="black"/>
</svg>
